<svg width="26" height="25" viewBox="0 0 26 25" fill="none" xmlns="http://www.w3.org/2000/svg">
<path fill-rule="evenodd" clip-rule="evenodd" d="M4.34835 4.12493C9.09252 -0.454625 16.8046 -0.40593 21.5777 4.20815C26.353 8.82421 26.4014 16.2837 21.6577 20.8692C16.914 25.4547 9.19741 25.4079 4.42217 20.7918C1.59236 18.0564 0.423799 14.3245 0.925587 10.7856C0.995899 10.2897 1.46875 9.94289 1.98171 10.0109C2.49469 10.0788 2.85352 10.5359 2.78322 11.0318C2.35825 14.0288 3.34727 17.1895 5.748 19.5103C9.8036 23.4307 16.333 23.4531 20.3319 19.5875C24.3307 15.7219 24.3075 9.4102 20.2519 5.48978C16.1984 1.57136 9.67361 1.54693 5.67419 5.40656L6.60881 5.41111C7.12657 5.41362 7.54419 5.8214 7.54159 6.3219C7.53899 6.8224 7.11715 7.2261 6.59939 7.22358L3.41745 7.20813C2.90336 7.20563 2.48726 6.80339 2.48467 6.30645L2.46869 3.23056C2.46607 2.73007 2.8837 2.32229 3.40146 2.31977C3.91922 2.31725 4.34106 2.72096 4.34366 3.22146L4.34835 4.12493ZM12.9999 6.76032C13.5176 6.76032 13.9374 7.16607 13.9374 7.66657V12.1246L16.7877 14.8799C17.1539 15.2339 17.1539 15.8077 16.7877 16.1615C16.4216 16.5154 15.828 16.5154 15.462 16.1615L12.0624 12.8753V7.66657C12.0624 7.16607 12.4821 6.76032 12.9999 6.76032Z" fill="#1F41BB"/>
</svg>
