<svg width="27" height="28" viewBox="0 0 27 28" fill="none" xmlns="http://www.w3.org/2000/svg">
<path d="M9.622 26.5011H17.3249C23.744 26.5011 26.3117 23.9335 26.3117 17.5144V9.81145C26.3117 3.39235 23.744 0.824707 17.3249 0.824707H9.622C3.20289 0.824707 0.635254 3.39235 0.635254 9.81145V17.5144C0.635254 23.9335 3.20289 26.5011 9.622 26.5011Z" stroke="#8D8D9B" stroke-width="1.28382" stroke-linecap="round" stroke-linejoin="round"/>
<path d="M17.9668 22.0077C19.379 22.0077 20.5345 20.8523 20.5345 19.4401V7.88572C20.5345 6.47352 19.379 5.31808 17.9668 5.31808C16.5546 5.31808 15.3992 6.47352 15.3992 7.88572V19.4401C15.3992 20.8523 16.5418 22.0077 17.9668 22.0077Z" stroke="#8D8D9B" stroke-width="1.28382" stroke-linecap="round" stroke-linejoin="round"/>
<path d="M8.98009 22.0077C10.3923 22.0077 11.5477 20.8523 11.5477 19.4401V14.9467C11.5477 13.5345 10.3923 12.3791 8.98009 12.3791C7.56788 12.3791 6.41245 13.5345 6.41245 14.9467V19.4401C6.41245 20.8523 7.55505 22.0077 8.98009 22.0077Z" stroke="#8D8D9B" stroke-width="1.28382" stroke-linecap="round" stroke-linejoin="round"/>
</svg>
