<svg width="27" height="28" viewBox="0 0 27 28" fill="none" xmlns="http://www.w3.org/2000/svg">
<path d="M9.622 26.5012H17.3249C23.744 26.5012 26.3117 23.9336 26.3117 17.5145V9.81157C26.3117 3.39247 23.744 0.824829 17.3249 0.824829H9.622C3.20289 0.824829 0.635254 3.39247 0.635254 9.81157V17.5145C0.635254 23.9336 3.20289 26.5012 9.622 26.5012Z" stroke="#1F41BB" stroke-width="1.28382" stroke-linecap="round" stroke-linejoin="round"/>
<path d="M17.9668 22.0079C19.379 22.0079 20.5345 20.8524 20.5345 19.4402V7.88584C20.5345 6.47364 19.379 5.3182 17.9668 5.3182C16.5546 5.3182 15.3992 6.47364 15.3992 7.88584V19.4402C15.3992 20.8524 16.5418 22.0079 17.9668 22.0079Z" stroke="#1F41BB" stroke-width="1.28382" stroke-linecap="round" stroke-linejoin="round"/>
<path d="M8.98009 22.0079C10.3923 22.0079 11.5477 20.8524 11.5477 19.4402V14.9469C11.5477 13.5347 10.3923 12.3792 8.98009 12.3792C7.56788 12.3792 6.41245 13.5347 6.41245 14.9469V19.4402C6.41245 20.8524 7.55505 22.0079 8.98009 22.0079Z" stroke="#1F41BB" stroke-width="1.28382" stroke-linecap="round" stroke-linejoin="round"/>
</svg>
