<svg width="22" height="30" viewBox="0 0 22 30" fill="none" xmlns="http://www.w3.org/2000/svg">
<path d="M21.9829 5.15369C21.9797 5.14212 21.9739 5.13158 21.9697 5.12035C21.9603 5.09497 21.9499 5.06994 21.936 5.04683C21.9287 5.03469 21.9196 5.02381 21.9112 5.01244C21.8964 4.99263 21.8808 4.97361 21.8628 4.95645C21.8517 4.94583 21.8395 4.93623 21.8272 4.92676C21.8172 4.91898 21.8089 4.90938 21.798 4.90243C21.7879 4.89596 21.7766 4.8928 21.766 4.88721C21.7582 4.88301 21.7521 4.87665 21.7439 4.8729L11.1839 0.0401128C11.067 -0.0133709 10.933 -0.0133709 10.8161 0.0401128L0.256094 4.8729C0.247715 4.87676 0.241431 4.88328 0.233428 4.88759C0.223115 4.89304 0.211943 4.89612 0.201953 4.90243C0.191104 4.90938 0.182832 4.91898 0.172788 4.92676C0.160488 4.93623 0.14835 4.94583 0.137178 4.95645C0.119238 4.97361 0.103555 4.99263 0.0888379 5.01244C0.0804053 5.02381 0.0713281 5.03469 0.0640234 5.04683C0.0501123 5.06994 0.0397461 5.09497 0.030293 5.12035C0.0261035 5.13158 0.0203027 5.14212 0.0170801 5.15369C0.00649913 5.19156 0 5.23093 0 5.27147V8.3271C0 8.49868 0.100547 8.65442 0.256953 8.72566L5.27656 11.0095L0.256094 13.3071C0.24793 13.3108 0.241699 13.3172 0.233857 13.3215C0.22333 13.327 0.212051 13.3302 0.201953 13.3366C0.191104 13.3436 0.182832 13.3532 0.172788 13.3609C0.160488 13.3704 0.14835 13.38 0.137178 13.3906C0.119238 13.4078 0.103555 13.4268 0.0888379 13.4466C0.0804053 13.458 0.0713281 13.4689 0.0640234 13.481C0.0501123 13.5041 0.0397461 13.5291 0.030293 13.5545C0.0261035 13.5658 0.0203027 13.5763 0.0170801 13.5879C0.00649905 13.6257 0 13.6651 0 13.7056V16.3231C0 16.4947 0.100547 16.6505 0.256953 16.7217L5.75663 19.2239L0.256094 21.7413C0.247822 21.7451 0.241592 21.7515 0.233643 21.7558C0.223223 21.7613 0.211943 21.7644 0.201953 21.7708C0.191104 21.7777 0.182832 21.7873 0.172788 21.7951C0.160488 21.8046 0.14835 21.8142 0.137178 21.8248C0.119238 21.842 0.103555 21.861 0.0888379 21.8808C0.0804053 21.8922 0.0713281 21.903 0.0640234 21.9152C0.0501123 21.9383 0.0397461 21.9633 0.030293 21.9887C0.0261035 21.9999 0.0203027 22.0105 0.0170801 22.022C0.00649905 22.0599 0 22.0993 0 22.1398V24.7573C0 24.9289 0.100547 25.0846 0.256953 25.1559L10.817 29.9604C10.8754 29.9867 10.9377 30 11 30C11.0623 30 11.1246 29.9867 11.183 29.9604L21.743 25.1559C21.8995 25.0846 22 24.9289 22 24.7573V22.1398C22 22.0995 21.9935 22.0599 21.9829 22.022C21.9797 22.0105 21.9739 21.9999 21.9697 21.9887C21.9603 21.9633 21.9499 21.9383 21.936 21.9152C21.9287 21.903 21.9196 21.8922 21.9112 21.8808C21.8964 21.861 21.8808 21.842 21.8628 21.8248C21.8517 21.8142 21.8395 21.8046 21.8272 21.7951C21.8172 21.7873 21.8089 21.7777 21.798 21.7708C21.7878 21.7642 21.7763 21.761 21.7658 21.7554C21.758 21.7513 21.752 21.745 21.7439 21.7413L16.2434 19.2239L21.743 16.7217C21.8995 16.6505 22 16.4947 22 16.3231V13.7056C22 13.6653 21.9935 13.6257 21.9829 13.5879C21.9797 13.5763 21.9739 13.5658 21.9697 13.5545C21.9603 13.5291 21.9499 13.5041 21.936 13.481C21.9287 13.4689 21.9196 13.458 21.9112 13.4466C21.8964 13.4268 21.8808 13.4078 21.8628 13.3906C21.8517 13.38 21.8395 13.3704 21.8272 13.3609C21.8172 13.3532 21.8089 13.3436 21.798 13.3366C21.7878 13.33 21.7763 13.3268 21.7657 13.3212C21.758 13.3171 21.752 13.3108 21.7439 13.3071L16.7234 11.0095L21.743 8.72566C21.8995 8.65442 22 8.49868 22 8.3271V5.27147C22 5.23117 21.9935 5.19156 21.9829 5.15369ZM11 26.4622L1.49644 22.1382L6.81355 19.7048L10.817 21.5262C10.8754 21.5526 10.9377 21.5658 11 21.5658C11.0623 21.5658 11.1246 21.5526 11.183 21.5262L15.1864 19.7048L20.5036 22.1382L11 26.4622ZM12.3189 17.4279L11.7904 17.6684L11.2621 17.9087L11 18.028L10.7379 17.9087L10.2096 17.6684L9.68107 17.4279L1.49644 13.704L6.33343 11.4903L10.817 13.5302C10.8754 13.5565 10.9377 13.5698 11 13.5698C11.0623 13.5698 11.1246 13.5565 11.183 13.5302L15.6666 11.4903L20.5036 13.704L12.3189 17.4279ZM11 0.920455L20.5036 5.26986L12.3189 8.99372L11.7904 9.23421L11.2621 9.47457L11 9.59381L10.7379 9.47457L10.2096 9.23421L9.68107 8.99372L1.49644 5.26986L11 0.920455Z" fill="#8D8D9B"/>
</svg>
