<svg width="28" height="28" viewBox="0 0 28 28" fill="none" xmlns="http://www.w3.org/2000/svg">
<path fill-rule="evenodd" clip-rule="evenodd" d="M14.0001 1.4585C10.9396 1.4585 8.45848 3.93959 8.45848 7.00016C8.45848 10.0607 10.9396 12.5418 14.0001 12.5418C17.0607 12.5418 19.5418 10.0607 19.5418 7.00016C19.5418 3.93959 17.0607 1.4585 14.0001 1.4585ZM10.2085 7.00016C10.2085 4.90608 11.9061 3.2085 14.0001 3.2085C16.0943 3.2085 17.7918 4.90608 17.7918 7.00016C17.7918 9.09425 16.0943 10.7918 14.0001 10.7918C11.9061 10.7918 10.2085 9.09425 10.2085 7.00016Z" fill="#1F41BB"/>
<path fill-rule="evenodd" clip-rule="evenodd" d="M14.0001 14.2915C11.301 14.2915 8.81424 14.9051 6.97151 15.9415C5.15623 16.9627 3.79182 18.5103 3.79182 20.4165L3.79175 20.5355C3.79043 21.8909 3.78878 23.5922 5.28098 24.8073C6.01536 25.4053 7.04271 25.8305 8.43073 26.1116C9.82264 26.3932 11.6368 26.5415 14.0001 26.5415C16.3636 26.5415 18.1777 26.3932 19.5696 26.1116C20.9577 25.8305 21.985 25.4053 22.7193 24.8073C24.2115 23.5922 24.2099 21.8909 24.2086 20.5355L24.2085 20.4165C24.2085 18.5103 22.8442 16.9627 21.0288 15.9415C19.1861 14.9051 16.6993 14.2915 14.0001 14.2915ZM5.54182 20.4165C5.54182 19.4233 6.26676 18.3458 7.82948 17.4668C9.36475 16.6033 11.5446 16.0415 14.0001 16.0415C16.4557 16.0415 18.6355 16.6033 20.1709 17.4668C21.7336 18.3458 22.4585 19.4233 22.4585 20.4165C22.4585 21.9423 22.4114 22.8012 21.6143 23.4503C21.182 23.8024 20.4594 24.146 19.2224 24.3964C17.9893 24.6459 16.3035 24.7915 14.0001 24.7915C11.6969 24.7915 10.011 24.6459 8.77792 24.3964C7.54094 24.146 6.81829 23.8024 6.38601 23.4503C5.58886 22.8012 5.54182 21.9423 5.54182 20.4165Z" fill="#1F41BB"/>
</svg>
