<svg width="28" height="28" viewBox="0 0 28 28" fill="none" xmlns="http://www.w3.org/2000/svg">
<path fill-rule="evenodd" clip-rule="evenodd" d="M14.0001 1.45837C10.9396 1.45837 8.45848 3.93947 8.45848 7.00004C8.45848 10.0606 10.9396 12.5417 14.0001 12.5417C17.0607 12.5417 19.5418 10.0606 19.5418 7.00004C19.5418 3.93947 17.0607 1.45837 14.0001 1.45837ZM10.2085 7.00004C10.2085 4.90596 11.9061 3.20837 14.0001 3.20837C16.0943 3.20837 17.7918 4.90596 17.7918 7.00004C17.7918 9.09413 16.0943 10.7917 14.0001 10.7917C11.9061 10.7917 10.2085 9.09413 10.2085 7.00004Z" fill="#8D8D9B"/>
<path fill-rule="evenodd" clip-rule="evenodd" d="M14.0001 14.2916C11.301 14.2916 8.81424 14.9052 6.97151 15.9416C5.15623 16.9628 3.79182 18.5104 3.79182 20.4166L3.79175 20.5356C3.79043 21.8911 3.78878 23.5923 5.28098 24.8074C6.01536 25.4054 7.04271 25.8307 8.43073 26.1117C9.82264 26.3933 11.6368 26.5416 14.0001 26.5416C16.3636 26.5416 18.1777 26.3933 19.5696 26.1117C20.9577 25.8307 21.985 25.4054 22.7193 24.8074C24.2115 23.5923 24.2099 21.8911 24.2086 20.5356L24.2085 20.4166C24.2085 18.5104 22.8442 16.9628 21.0288 15.9416C19.1861 14.9052 16.6993 14.2916 14.0001 14.2916ZM5.54182 20.4166C5.54182 19.4234 6.26676 18.3459 7.82948 17.4669C9.36475 16.6034 11.5446 16.0416 14.0001 16.0416C16.4557 16.0416 18.6355 16.6034 20.1709 17.4669C21.7336 18.3459 22.4585 19.4234 22.4585 20.4166C22.4585 21.9424 22.4114 22.8013 21.6143 23.4504C21.182 23.8025 20.4594 24.1461 19.2224 24.3965C17.9893 24.646 16.3035 24.7916 14.0001 24.7916C11.6969 24.7916 10.011 24.646 8.77792 24.3965C7.54094 24.1461 6.81829 23.8025 6.38601 23.4504C5.58886 22.8013 5.54182 21.9424 5.54182 20.4166Z" fill="#8D8D9B"/>
</svg>
